<?xml version="1.0"?>
<svg xmlns="http://www.w3.org/2000/svg" viewBox="0 0 512 512" width="512" height="512"><g id="Filled_outline" data-name="Filled outline"><path d="M488,343.35V464a24,24,0,0,1-24,24H192a24,24,0,0,1-24-24V343.35a47.985,47.985,0,0,1,38.58-47.06C241.66,289.27,288,280,288,280V208h80v72l45.15,9.03,36.26,7.25A48,48,0,0,1,488,343.35Z" style="fill:#3d4d63"/><path d="M488,343.35V464a24,24,0,0,1-24,24H192.64c62.59-25.65,171.56-77.88,220.51-198.97l36.26,7.25A48,48,0,0,1,488,343.35Z" style="fill:#374559"/><path d="M408,136h-8v48h8a24,24,0,0,0,0-48Z" style="fill:#feb784"/><path d="M248.4,136H248a24,24,0,0,0,0,48l8,0V136Z" style="fill:#feb784"/><rect x="256" y="56" width="144" height="200" rx="72" ry="72" style="fill:#fec9a3"/><path d="M400,128v56a72.029,72.029,0,0,1-42.66,65.77A71.572,71.572,0,0,0,358,240V88a71.663,71.663,0,0,0-5.54-27.73A72.054,72.054,0,0,1,400,128Z" style="fill:#feb784"/><path d="M256,136h0V96c0-26.51,17.909-40,40-40h0l-1.408,5.068C286.75,89.3,273.537,114.956,256,136Z" style="fill:#95573a"/><path d="M400,136h0V88c0-26.51-17.909-32-40-32h0l1.408,5.068C369.25,89.3,382.463,114.956,400,136Z" style="fill:#95573a"/><path d="M400,88H278.7A30.707,30.707,0,0,1,248,57.3V54.7a30.7,30.7,0,0,1,47.73-25.54,64.552,64.552,0,0,0,17.11,8.07A64.457,64.457,0,0,0,331.55,40H352A48,48,0,0,1,400,88Z" style="fill:#7a432a"/><path d="M400,136v56a178.2,178.2,0,0,1-6.32,47.15l-11.25,41.27A32,32,0,0,1,351.56,304H304.44a31.676,31.676,0,0,1-6.56-.68,32,32,0,0,1-24.31-22.9l-11.25-41.26A178.9,178.9,0,0,1,256,192V136l13.03,41.15a19.031,19.031,0,0,0,4.62,7.79,20.1,20.1,0,0,0,25.29,2.43A20.073,20.073,0,0,1,310.08,184h35.84a20.089,20.089,0,0,1,11.14,3.37s2.77,1.78,2.94,1.87c10.98,5.98,24.81-.22,28.28-12.34Z" style="fill:#7a432a"/><path d="M400,136v56a178.2,178.2,0,0,1-6.32,47.15l-11.25,41.27A32,32,0,0,1,351.56,304H304.44a31.676,31.676,0,0,1-6.56-.68A72,72,0,0,0,360,232V189.24c10.98,5.98,24.81-.22,28.28-12.34Z" style="fill:#743b20"/><path d="M352,184H304a48,48,0,0,0-48,48h24a47.633,47.633,0,0,0,29.291-10.029A26.636,26.636,0,0,1,325.534,216h4.932a26.634,26.634,0,0,1,16.243,5.971A47.633,47.633,0,0,0,376,232h24A48,48,0,0,0,352,184Z" style="fill:#95573a"/><path d="M400,88H358a71.7,71.7,0,0,0-18.34-48H352A48,48,0,0,1,400,88Z" style="fill:#743b20"/><path d="M392,392l-224,8v64a24,24,0,0,0,24,24h48l152-53.455L448,424l40,16V376l-48-8Z" style="fill:#feb784"/><path d="M24.342,426.556c-3.45,30.73,19.594,58.335,51.322,61.214,31.22,2.834,59.85-20.889,62.044-51.348a54.935,54.935,0,0,0-24.927-49.757L132.664,338.3a77.7,77.7,0,0,1,36.914-39.666h0l39.81-125.825A242.279,242.279,0,0,0,208.587,24h0L82.655,377.226C53.235,376.327,27.594,397.582,24.342,426.556ZM56.675,430c1.464-13.042,13.508-22.458,26.9-21.033s23.063,13.154,21.6,26.2-13.508,22.458-26.9,21.033S55.211,443.04,56.675,430Z" style="fill:#c7c7c5"/><path d="M279.66,426.56c-3.25-28.98-28.9-50.23-58.32-49.33l-30.69-86.1L95.41,24a242.311,242.311,0,0,0-.8,148.81l4.8,15.18,35.01,110.65a78.481,78.481,0,0,1,22.12,16.6,76.779,76.779,0,0,1,14.8,23.06l19.88,48.36a54.95,54.95,0,0,0-24.93,49.76c2.2,30.46,30.83,54.18,62.05,51.35C260.06,484.89,283.11,457.29,279.66,426.56Zm-53.93,29.63c-13.4,1.43-25.44-7.99-26.9-21.03s8.2-24.77,21.59-26.19,25.44,7.99,26.91,21.03S239.12,454.77,225.73,456.19Z" style="fill:#e0e0de"/><path d="M279.66,426.56c-3.25-28.98-28.9-50.23-58.32-49.33l-30.69-86.1c-33.74-29.3-65.17-63.47-91.24-103.14l35.01,110.65a78.481,78.481,0,0,1,22.12,16.6,76.779,76.779,0,0,1,14.8,23.06l19.88,48.36a54.95,54.95,0,0,0-24.93,49.76c2.2,30.46,30.83,54.18,62.05,51.35C260.06,484.89,283.11,457.29,279.66,426.56Zm-53.93,29.63c-13.4,1.43-25.44-7.99-26.9-21.03s8.2-24.77,21.59-26.19,25.44,7.99,26.91,21.03S239.12,454.77,225.73,456.19Z" style="fill:#d6d6d4"/><path d="M488,408v56a24.006,24.006,0,0,1-24,24H416l-56.35-19.82-28.35-9.96L264,434.55,208,424l-40,16V376l48-8,48,24,79.9,5.71,29.62,2.11Z" style="fill:#fec9a3"/><path d="M451.01,280.475,393.8,269.034l1.9-6.97c1.96-7.046,3.717-14.466,5.247-22.126A8,8,0,0,0,408,232a55.75,55.75,0,0,0-2.838-17.567c.737-5.327,1.828-17.665,1.84-17.736.02-.128.05-.255.064-.383.215-1.443.38-2.881.521-4.316H408a32,32,0,1,0,0-64V88c0-6-2.067-15.064-2.157-15.351A56.088,56.088,0,0,0,352,32H331.548a56.39,56.39,0,0,1-31.377-9.5A38.7,38.7,0,0,0,240,54.7V57.3a38.532,38.532,0,0,0,9.506,25.364A57.747,57.747,0,0,0,248,96v32a31.881,31.881,0,0,0-22.048,8.84,249.025,249.025,0,0,0-9.761-115.333,8,8,0,0,0-15.136-.192L152,158.91l-49.055-137.6A8,8,0,0,0,95.411,16h-.1a8,8,0,0,0-7.5,5.506,250.3,250.3,0,0,0-.826,153.717l27.837,87.988-37.831,106.1a65.6,65.6,0,0,0-38.45,15.251,62.668,62.668,0,0,0-22.149,41.1,62.012,62.012,0,0,0,13.76,46.44,64.834,64.834,0,0,0,44.788,23.63q2.838.258,5.682.257a66.35,66.35,0,0,0,42.7-15.8c13.227-11.234,21.172-26.577,22.373-43.2a62.963,62.963,0,0,0-23.137-53.062l17.507-42.59A69.039,69.039,0,0,1,152,322.157a69.137,69.137,0,0,1,8.046,11.242c-.028.628-.048,1.279-.048,1.961V464a32.036,32.036,0,0,0,32,32h48a7.979,7.979,0,0,0,2.655-.454l85.328-30.019s25.545,9.223,28,9.849l57.358,20.171A7.993,7.993,0,0,0,416,496h48a32.036,32.036,0,0,0,32-32V335.36A56.12,56.12,0,0,0,451.01,280.475Zm-9.759,95.844L480,382.777v16.631L405.688,394.1ZM480,335.36v31.2l-38.685-6.447a8.007,8.007,0,0,0-4.893.736L416,371.056V344H400v35.056l-10.022,5.011-83.251,2.965-40.571-2.9L248,375.056V344H232v23.056l-7.053-3.527L201.612,298.08a36.5,36.5,0,0,1,6.528-1.918c9.8-1.974,50.221-10.1,58.322-11.732A40.043,40.043,0,0,0,304.48,312h47.04a40.036,40.036,0,0,0,38-27.5l58.351,11.67A40.077,40.077,0,0,1,480,335.36ZM272.791,95.549q-4.039,8.161-8.791,15.779V96c0-.976.036-1.931.093-2.872A38.4,38.4,0,0,0,272.791,95.549ZM392,96v15.328q-4.617-7.4-8.563-15.328Zm-88,96h48a40.071,40.071,0,0,1,39.2,32H376a39.479,39.479,0,0,1-24.391-8.352A34.494,34.494,0,0,0,330.467,208h-4.933a34.495,34.495,0,0,0-21.143,7.648A39.479,39.479,0,0,1,280,224H264.8A40.071,40.071,0,0,1,304,192Zm61.73-96a196.983,196.983,0,0,0,25.432,41.813l-11.644,40.755A12.109,12.109,0,0,1,376.4,181.6,55.665,55.665,0,0,0,352,176H323.1l12.49-37.47-15.18-5.06L306.234,176H304a55.655,55.655,0,0,0-22.727,4.838,11.849,11.849,0,0,1-4.021-4.249L264.929,137.7A196.984,196.984,0,0,0,290.27,96ZM280,240a55.333,55.333,0,0,0,34.191-11.706A18.97,18.97,0,0,1,325.534,224h4.933a18.969,18.969,0,0,1,11.342,4.294A55.333,55.333,0,0,0,376,240h8.594c-1.292,6.137-9.916,38.313-9.916,38.313A24.01,24.01,0,0,1,351.52,296H304.48a24.013,24.013,0,0,1-23.162-17.7s-8.621-32.162-9.912-38.3Zm144-80a16.019,16.019,0,0,1-16,16V144A16.018,16.018,0,0,1,424,160ZM256,54.7a22.7,22.7,0,0,1,35.3-18.891A72.333,72.333,0,0,0,331.548,48H352a40.067,40.067,0,0,1,38.573,29.431c.026.1.044.2.063.3q.073.366.18.724c.124.412.232.944.353,1.547H278.7A22.73,22.73,0,0,1,256,57.3ZM248,144v32a16,16,0,0,1,0-32Zm-30.983,31.225c.39-1.235.763-2.473,1.135-3.711A32.046,32.046,0,0,0,248,192h.413c.141,1.435.306,2.874.521,4.316.014.131.044.261.066.391.01.069.011.139.023.207.481,6.436,1.078,12.193,1.815,17.521A55.745,55.745,0,0,0,248,232a8,8,0,0,0,7.046,7.938c1.53,7.659,3.285,15.073,5.238,22.094l1.9,6.939c-7.855,1.582-47.4,9.532-57.147,11.5a52.227,52.227,0,0,0-8.8,2.533l-7.058-19.8Zm-9.464-124.49a233.011,233.011,0,0,1-5.79,119.663l-21.474,67.865-19.8-55.529ZM125.261,335.258l-19.88,48.361a8,8,0,0,0,3,9.719,47.126,47.126,0,0,1,21.354,42.506A46.545,46.545,0,0,1,112.958,468a50,50,0,0,1-36.574,11.8,48.958,48.958,0,0,1-33.835-17.809A46.131,46.131,0,0,1,32.29,427.452c2.741-24.454,24.76-43,50.126-42.226a8.008,8.008,0,0,0,7.779-5.309l32.611-91.464,3.986,12.6a8,8,0,0,0,4.02,4.727,71.205,71.205,0,0,1,9.319,5.651A85.143,85.143,0,0,0,125.261,335.258ZM157.4,304.844a86.384,86.384,0,0,0-16.335-11.737L102.238,170.4a234.267,234.267,0,0,1-5.78-119.636l76.673,215.067c.023.073.048.146.074.218l33.982,95.312-16.582,2.764s-14.059-33.837-15.334-36.245A85.135,85.135,0,0,0,162.4,309.793C160.763,308.032,159.069,306.358,157.4,304.844ZM176,400V382.777l38.749-6.458,45.673,22.836c.939.47,74.564,5.936,74.564,5.936a42.493,42.493,0,0,0-8.061,12.759l-13.356-2.671-3.138,15.69,13.356,2.671a42.467,42.467,0,0,0,2.365,14.382L266.654,427a7.943,7.943,0,0,0-1.174-.315l-56-10.546a8,8,0,0,0-4.451.434L176,428.184V400Zm51.638,79.8c-1.5.132-2.968.2-4.429.2-21.485-.025-41.131-14.509-47.171-34.6l15.373-6.149a32.309,32.309,0,0,0,31.638,25.081,33.293,33.293,0,0,0,3.526-.188,32.24,32.24,0,0,0,27.769-23.277l15.9,4.353C264.937,464.068,248.222,477.933,227.638,479.8Zm-18.829-47.508,29.7,5.592a16.3,16.3,0,0,1-13.625,10.35c-9.02.958-17.133-5.3-18.1-13.981-.042-.372-.065-.744-.08-1.117Zm69.507,33.746a62.45,62.45,0,0,0,7.039-15.5l18.518,6.512ZM480,464a16.019,16.019,0,0,1-16,16H417.366s-56.617-19.943-56.889-20.007l-5.6-1.968a26.874,26.874,0,0,1-14.951-21.257l30.84,6.168-2.522,12.61,15.69,3.138,2.522-12.61,13.073,2.615A21.907,21.907,0,1,0,402.669,433L389.6,430.384l2.522-12.61-15.689-3.137-2.522,12.61-30.847-6.17A26.815,26.815,0,0,1,364.8,407.22L480,415.449Zm-64.7-20.316a5.907,5.907,0,1,1,4.634,6.95A5.915,5.915,0,0,1,415.3,443.684Z"/><path d="M280,148a12,12,0,1,0,12-12A12.013,12.013,0,0,0,280,148Z"/><path d="M364,160a12,12,0,1,0-12-12A12.013,12.013,0,0,0,364,160Z"/><path d="M84.422,401.01c-17.727-1.887-33.745,10.716-35.7,28.1h0a31.134,31.134,0,0,0,6.742,23.112,32.321,32.321,0,0,0,21.96,11.931,33.117,33.117,0,0,0,3.516.187c16.286,0,30.361-12.062,32.181-28.283a31.134,31.134,0,0,0-6.742-23.112A32.325,32.325,0,0,0,84.422,401.01Zm12.8,33.259c-.973,8.662-9.1,14.928-18.1,13.97A16.429,16.429,0,0,1,67.943,442.2a15.246,15.246,0,0,1-3.318-11.31c.973-8.663,9.1-14.925,18.1-13.971a16.436,16.436,0,0,1,11.176,6.038A15.244,15.244,0,0,1,97.224,434.269Z"/><rect x="144" y="256" width="16" height="16"/></g></svg>
